# xmcd
#
# Track frame offsets:
#	150
#	16659
#	34221
#	49791
#	67042
#	84183
#	101894
#	115035
#	134453
#	147717
#	164220
#	181927
#	201764
#	217042
#	233554
#	246283
#	261212
#	280824
#	297103
#	314918
#
# Disc length: 4418 seconds
#
# Revision: 0
# Processed by: cddbd v1.5.1PL0 Copyright (c) Steve Scherf et al.
# Submitted via: dBpowerAMP V4.0
#
DISCID=37114014
DTITLE=Kenny Rogers - Through The Years
DYEAR=1900
DGENRE=
TTITLE0=Lucile
TTITLE1=Lady
TTITLE2=The Gambler
TTITLE3=Love Lifted Me
TTITLE4=Why Don't You Stay
TTITLE5=Scarlet Fever
TTITLE6=Something got a hold on me
TTITLE7=She believes in me
TTITLE8=Ruby,dont take your love out of town
TTITLE9=Don't fall in love with a dreamer
TTITLE10=You were a good friend
TTITLE11=Through the years
TTITLE12=Daytime friend
TTITLE13=You Decorated my life
TTITLE14=Ruben James
TTITLE15=Till I can make It on my own
TTITLE16=Coward of the county
TTITLE17=I dont need you
TTITLE18=Something's burning
TTITLE19=Love will turn you around
EXTD=
EXTT0=
EXTT1=
EXTT2=
EXTT3=
EXTT4=
EXTT5=
EXTT6=
EXTT7=
EXTT8=
EXTT9=
EXTT10=
EXTT11=
EXTT12=
EXTT13=
EXTT14=
EXTT15=
EXTT16=
EXTT17=
EXTT18=
EXTT19=
PLAYORDER=
